<svg width="200" height="64" viewBox="0 0 200 64" xmlns="http://www.w3.org/2000/svg">
  <defs>
    <linearGradient id="iconGradient" x1="0%" y1="0%" x2="100%" y2="100%">
      <stop offset="0%" style="stop-color:#F15922;stop-opacity:1" />
      <stop offset="50%" style="stop-color:#FF8E00;stop-opacity:1" />
      <stop offset="100%" style="stop-color:#E3671D;stop-opacity:1" />
    </linearGradient>
  </defs>
  
  <!-- Phone Icon -->
  <g transform="translate(16, 16)">
    <!-- Background Circle -->
    <circle cx="16" cy="16" r="16" fill="#FFF5F0" stroke="#FFE4DB" stroke-width="1"/>
    <!-- Phone Path -->
    <path d="M12 7c-.55 0-1 .45-1 1v1.58c0 .45.3.85.72.97l1.96.59c.39.12.82-.05 1.02-.41l.58-.97c1.31.65 2.37 1.71 3.02 3.02l-.97.58c-.36.2-.53.63-.41 1.02l.59 1.96c.12.42.52.72.97.72H20c.55 0 1-.45 1-1 0-5.52-4.48-10-10-10z" 
          fill="url(#iconGradient)" 
          transform="translate(4, 4) scale(0.8)"/>
  </g>
  
  <!-- Email Icon -->
  <g transform="translate(84, 16)">
    <!-- Background Circle -->
    <circle cx="16" cy="16" r="16" fill="#FFF5F0" stroke="#FFE4DB" stroke-width="1"/>
    <!-- Email Envelope -->
    <g transform="translate(6, 9)">
      <rect x="0" y="2" width="20" height="14" rx="2" fill="url(#iconGradient)" opacity="0.9"/>
      <path d="M2 4l8 5 8-5" stroke="#ffffff" stroke-width="1.5" fill="none" stroke-linecap="round"/>
      <path d="M2 12l6-4M18 12l-6-4" stroke="#ffffff" stroke-width="1" fill="none" stroke-linecap="round" opacity="0.6"/>
    </g>
  </g>
  
  <!-- Location Icon -->
  <g transform="translate(152, 16)">
    <!-- Background Circle -->
    <circle cx="16" cy="16" r="16" fill="#FFF5F0" stroke="#FFE4DB" stroke-width="1"/>
    <!-- Location Pin -->
    <g transform="translate(8, 6)">
      <path d="M8 0C3.58 0 0 3.58 0 8c0 6 8 12 8 12s8-6 8-12c0-4.42-3.58-8-8-8zm0 11c-1.66 0-3-1.34-3-3s1.34-3 3-3 3 1.34 3 3-1.34 3-3 3z" 
            fill="url(#iconGradient)"/>
      <circle cx="8" cy="8" r="2" fill="#ffffff" opacity="0.8"/>
    </g>
  </g>
  
  <!-- Labels (Optional - can be removed for icon-only use) -->
  <text x="32" y="56" font-family="Arial, sans-serif" font-size="8" fill="#666" text-anchor="middle">Phone</text>
  <text x="100" y="56" font-family="Arial, sans-serif" font-size="8" fill="#666" text-anchor="middle">Email</text>
  <text x="168" y="56" font-family="Arial, sans-serif" font-size="8" fill="#666" text-anchor="middle">Location</text>
</svg>